# xmcd
#
# Track frame offsets:
#	150
#	15226
#	28812
#	43732
#	61168
#	78874
#	99967
#	115343
#	133403
#	149622
#	166221
#	181470
#	195339
#	212314
#	227843
#	244196
#	261669
#	283289
#	301821
#	321899
#
# Disc length: 4519 seconds
#
# Revision: 1
# Processed by: cddbd v1.5.1PL2 Copyright (c) Steve Scherf et al.
# Submitted via: audiograbber 1.83.01
#
DISCID=1c11a514
DTITLE=Top Tunes - ttfp22
DYEAR=1900
DGENRE=
TTITLE0=Austin, Sherry - Jolene
TTITLE1=Womack, Lee Ann - Lord I Hope This Day Is Good
TTITLE2=Forester Sisters - Men
TTITLE3=Dixie Chicks - Ready To Run
TTITLE4=Carter, Deana - Strawberry Wine
TTITLE5=Hill, Faith - That's How Love Moves
TTITLE6=Messina, Jo Dee - That's The Way It Is
TTITLE7=O'Neil, Jamie - There Is No Arizona
TTITLE8=McBride, Martina - There You Are
TTITLE9=Hill, Faith - There You'll Be
TTITLE10=Thompson, Cyndi - What I Really Meant To Say
TTITLE11=O'Neil, Jamie - When I Think About Angels
TTITLE12=Andrews, Jessica - Who I Am
TTITLE13=Judds - Why Not Me
TTITLE14=Womack, Lee Ann - Why They Call It Falling
TTITLE15=Dixie Chicks - Wide Open Spaces
TTITLE16=Twain, Shania - Woman In Me
TTITLE17=Loveless, Patty - You Don't Even Know Who I Am
TTITLE18=Judds - Young Love
TTITLE19=Twain, Shania - You're Still The One
EXTD=
EXTT0=
EXTT1=
EXTT2=
EXTT3=
EXTT4=
EXTT5=
EXTT6=
EXTT7=
EXTT8=
EXTT9=
EXTT10=
EXTT11=
EXTT12=
EXTT13=
EXTT14=
EXTT15=
EXTT16=
EXTT17=
EXTT18=
EXTT19=
PLAYORDER=
